<svg xmlns="http://www.w3.org/2000/svg" xmlns:xlink="http://www.w3.org/1999/xlink" version="1.1" x="0px" y="0px" viewBox="0 0 100 125" enable-background="new 0 0 100 100" xml:space="preserve"><circle cx="49.79" cy="57.725" r="3.862"/><circle cx="61.378" cy="57.725" r="3.862"/><circle cx="72.964" cy="57.725" r="3.862"/><circle cx="84.552" cy="57.725" r="3.862"/><path d="M42.066,50h25.899v-0.051c0-2.816-1.693-5.067-4.148-5.807V34.111c0-7.375-6-13.375-13.375-13.375  c-7.375,0-13.375,6-13.375,13.375v4.493h5v-4.493c0-4.618,3.758-8.375,8.375-8.375c4.62,0,8.375,3.757,8.375,8.375v9.771H38.357  c-3.525,0-6.393,2.722-6.393,6.066v15.5c0,3.459,2.551,6.066,5.934,6.066H61.57c3.525,0,6.395-2.722,6.395-6.066H42.066V50z"/></svg>
